<svg width="624" height="1024" viewBox="0 0 624 1024" fill="none" xmlns="http://www.w3.org/2000/svg">
<path d="M645.285 -55L653 1031.83L218.749 1029.85C219.015 1030.18 219.247 1030.53 219.442 1030.92C220.281 1032.6 220.244 1034.4 219.332 1034.87C218.42 1035.35 216.98 1034.48 216.141 1032.78C215.628 1031.87 215.44 1030.79 215.612 1029.75L0 1031.19C6.01911 983.31 22.0153 940.926 49.0648 916.48C86.438 882.699 141.376 879.554 173.861 838.356C213.514 788.16 211.781 692.908 232.228 620.639C249.556 559.663 283.719 514.372 329.117 492.339C394.999 460.338 484.775 474.875 532.253 411.763C604.519 315.72 544.912 87.8373 609.389 -18.4897C618.425 -33.6561 630.749 -46.1915 645.285 -55Z" fill="url(#paint0_linear_67_15)"/>
<path d="M657.285 -37L665 1036.86L230.749 1034.91C231.015 1035.23 231.247 1035.59 231.442 1035.96C232.281 1037.63 232.244 1039.4 231.332 1039.87C230.42 1040.34 228.98 1039.48 228.141 1037.8C227.628 1036.91 227.44 1035.84 227.612 1034.81L12 1036.24C18.0191 988.926 34.0153 947.047 61.0648 922.893C98.438 889.515 153.376 886.408 185.861 845.702C225.514 796.104 223.781 701.988 244.228 630.581C261.556 570.332 295.719 525.581 341.117 503.811C406.999 472.192 496.775 486.555 544.253 424.196C616.519 329.299 556.912 104.134 621.389 -0.925114C630.425 -15.9106 642.749 -28.2965 657.285 -37Z" fill="url(#paint1_linear_67_15)"/>
<g filter="url(#filter0_d_67_15)">
<circle cx="490" cy="710" r="7" fill="url(#paint2_linear_67_15)"/>
</g>
<path d="M604.561 660.053C604.182 659.282 604.012 658.447 604.071 657.654C604.131 656.861 604.417 656.145 604.895 655.597C605.372 655.049 606.018 654.694 606.752 654.577C607.486 654.461 608.274 654.587 609.016 654.94C609.758 655.293 610.421 655.858 610.921 656.562C611.421 657.266 611.735 658.078 611.824 658.896C611.913 659.713 611.772 660.498 611.419 661.152C611.067 661.805 610.518 662.298 609.843 662.568C609.399 662.749 608.909 662.828 608.403 662.8C607.896 662.772 607.382 662.637 606.891 662.404C606.4 662.17 605.941 661.842 605.541 661.438C605.142 661.035 604.808 660.564 604.561 660.053Z" fill="white"/>
<path d="M153.924 929.134C153.541 928.365 153.365 927.53 153.42 926.735C153.474 925.94 153.756 925.222 154.229 924.67C154.702 924.118 155.345 923.758 156.078 923.636C156.81 923.514 157.597 923.635 158.341 923.983C159.085 924.332 159.751 924.892 160.254 925.593C160.758 926.295 161.077 927.106 161.171 927.923C161.265 928.74 161.129 929.527 160.781 930.184C160.433 930.841 159.888 931.339 159.216 931.614C158.32 931.98 157.26 931.924 156.269 931.46C155.277 930.995 154.434 930.159 153.924 929.134Z" fill="white"/>
<path d="M590.017 553.726C589.495 552.662 589.259 551.511 589.34 550.416C589.421 549.321 589.816 548.333 590.472 547.576C591.129 546.819 592.02 546.327 593.031 546.163C594.042 545.999 595.13 546.169 596.155 546.653C597.18 547.138 598.097 547.913 598.79 548.882C599.483 549.852 599.921 550.971 600.048 552.098C600.176 553.226 599.987 554.311 599.506 555.217C599.025 556.123 598.273 556.809 597.346 557.188C596.102 557.696 594.632 557.616 593.257 556.967C591.883 556.318 590.717 555.152 590.017 553.726Z" fill="white"/>
<path d="M439.241 602.015C439.026 601.59 438.927 601.127 438.956 600.685C438.985 600.244 439.14 599.845 439.402 599.539C439.664 599.232 440.022 599.033 440.428 598.966C440.834 598.898 441.271 598.966 441.683 599.161C442.095 599.356 442.463 599.668 442.741 600.058C443.019 600.449 443.193 600.899 443.242 601.352C443.291 601.805 443.212 602.241 443.015 602.602C442.818 602.964 442.513 603.236 442.137 603.383C441.646 603.584 441.065 603.553 440.521 603.296C439.978 603.04 439.517 602.579 439.241 602.015Z" fill="white"/>
<path d="M421.046 585.869C420.879 585.528 420.804 585.16 420.83 584.81C420.857 584.459 420.984 584.143 421.195 583.902C421.406 583.661 421.693 583.505 422.017 583.455C422.341 583.404 422.689 583.461 423.017 583.619C423.344 583.776 423.636 584.027 423.855 584.339C424.074 584.65 424.211 585.01 424.248 585.37C424.285 585.731 424.221 586.077 424.063 586.364C423.905 586.651 423.661 586.866 423.362 586.982C422.966 587.136 422.501 587.106 422.067 586.897C421.634 586.689 421.267 586.319 421.046 585.869Z" fill="white"/>
<path d="M392.01 524.934C391.787 524.479 391.73 523.978 391.853 523.541C391.976 523.105 392.267 522.769 392.664 522.607C392.859 522.527 393.075 522.492 393.297 522.505C393.52 522.518 393.746 522.578 393.961 522.682C394.177 522.785 394.378 522.931 394.553 523.109C394.728 523.287 394.873 523.495 394.98 523.72C395.093 523.942 395.165 524.178 395.194 524.414C395.222 524.651 395.206 524.883 395.146 525.097C395.086 525.31 394.983 525.502 394.844 525.659C394.705 525.816 394.532 525.936 394.336 526.012C394.142 526.096 393.928 526.134 393.706 526.124C393.484 526.115 393.258 526.059 393.041 525.958C392.825 525.858 392.622 525.716 392.445 525.54C392.268 525.364 392.12 525.158 392.01 524.934Z" fill="white"/>
<path d="M324.26 762.734C324.093 762.394 324.018 762.025 324.045 761.675C324.071 761.324 324.198 761.009 324.409 760.767C324.621 760.526 324.907 760.37 325.231 760.32C325.556 760.269 325.904 760.326 326.231 760.484C326.558 760.641 326.85 760.892 327.069 761.204C327.289 761.516 327.426 761.875 327.463 762.235C327.5 762.596 327.435 762.942 327.278 763.229C327.12 763.516 326.876 763.731 326.576 763.848C326.18 764.001 325.715 763.971 325.282 763.763C324.848 763.554 324.481 763.185 324.26 762.734Z" fill="white"/>
<path d="M323.058 704.816C322.891 704.477 322.816 704.109 322.842 703.76C322.868 703.411 322.993 703.096 323.203 702.854C323.412 702.613 323.697 702.456 324.019 702.403C324.342 702.351 324.689 702.406 325.016 702.56C325.343 702.714 325.635 702.962 325.856 703.271C326.077 703.58 326.217 703.937 326.258 704.297C326.299 704.657 326.239 705.003 326.085 705.292C325.932 705.581 325.692 705.8 325.396 705.921C324.999 706.083 324.53 706.058 324.091 705.85C323.653 705.643 323.281 705.271 323.058 704.816Z" fill="white"/>
<path d="M559.383 771.195C559.217 770.856 559.142 770.488 559.167 770.139C559.193 769.79 559.319 769.475 559.529 769.233C559.738 768.991 560.022 768.835 560.345 768.782C560.668 768.73 561.014 768.784 561.341 768.939C561.668 769.093 561.961 769.341 562.182 769.65C562.403 769.959 562.543 770.316 562.584 770.676C562.624 771.036 562.564 771.382 562.411 771.671C562.257 771.96 562.017 772.179 561.722 772.3C561.325 772.462 560.856 772.437 560.417 772.229C559.978 772.022 559.607 771.65 559.383 771.195Z" fill="white"/>
<path d="M259.825 690.684C259.658 690.344 259.583 689.977 259.609 689.627C259.635 689.278 259.76 688.963 259.97 688.721C260.18 688.48 260.464 688.323 260.786 688.271C261.109 688.218 261.456 688.273 261.783 688.427C262.11 688.582 262.402 688.829 262.623 689.138C262.845 689.448 262.984 689.804 263.025 690.164C263.066 690.524 263.006 690.87 262.852 691.159C262.699 691.448 262.459 691.667 262.163 691.788C261.766 691.95 261.297 691.925 260.858 691.718C260.42 691.511 260.048 691.139 259.825 690.684Z" fill="white"/>
<path d="M230.981 803.92C230.814 803.581 230.739 803.213 230.765 802.864C230.791 802.514 230.916 802.199 231.126 801.958C231.335 801.716 231.619 801.559 231.942 801.507C232.265 801.455 232.612 801.509 232.939 801.664C233.266 801.818 233.558 802.065 233.779 802.375C234 802.684 234.14 803.041 234.181 803.401C234.222 803.76 234.161 804.107 234.008 804.396C233.855 804.685 233.615 804.903 233.319 805.024C232.922 805.186 232.453 805.161 232.014 804.954C231.576 804.747 231.204 804.375 230.981 803.92Z" fill="white"/>
<path d="M174.516 764.426C174.292 763.971 174.236 763.47 174.358 763.034C174.481 762.597 174.773 762.261 175.169 762.099C175.365 762.019 175.58 761.985 175.803 761.997C176.026 762.01 176.251 762.07 176.467 762.174C176.682 762.278 176.883 762.423 177.058 762.601C177.233 762.779 177.378 762.987 177.486 763.212C177.598 763.434 177.671 763.67 177.699 763.907C177.727 764.143 177.711 764.375 177.651 764.589C177.591 764.802 177.488 764.994 177.349 765.151C177.21 765.308 177.038 765.429 176.842 765.504C176.648 765.588 176.434 765.626 176.211 765.616C175.989 765.607 175.763 765.551 175.547 765.45C175.33 765.35 175.127 765.208 174.95 765.032C174.773 764.856 174.626 764.65 174.516 764.426Z" fill="white"/>
<path d="M172.661 793.408C172.445 792.955 172.395 792.46 172.519 792.029C172.644 791.598 172.934 791.267 173.327 791.107C173.715 791.01 174.147 791.075 174.543 791.29C174.939 791.504 175.271 791.854 175.477 792.273C175.682 792.692 175.747 793.151 175.659 793.563C175.571 793.976 175.337 794.313 174.999 794.512C174.603 794.674 174.133 794.649 173.695 794.442C173.256 794.235 172.884 793.863 172.661 793.408Z" fill="white"/>
<path d="M458.275 489.715C458.108 489.375 458.033 489.006 458.059 488.656C458.086 488.305 458.213 487.99 458.424 487.748C458.635 487.507 458.922 487.351 459.246 487.301C459.57 487.25 459.918 487.307 460.246 487.465C460.573 487.622 460.865 487.873 461.084 488.185C461.303 488.497 461.44 488.856 461.477 489.216C461.514 489.577 461.45 489.923 461.292 490.21C461.134 490.497 460.89 490.712 460.591 490.829C460.195 490.982 459.73 490.952 459.296 490.743C458.863 490.535 458.496 490.166 458.275 489.715Z" fill="white"/>
<path d="M293.8 748.033C293.576 747.578 293.52 747.077 293.642 746.641C293.765 746.205 294.057 745.868 294.454 745.706C294.649 745.626 294.864 745.592 295.087 745.605C295.31 745.618 295.535 745.678 295.751 745.781C295.966 745.885 296.168 746.03 296.342 746.208C296.517 746.387 296.663 746.594 296.77 746.82C296.882 747.041 296.955 747.278 296.983 747.514C297.012 747.75 296.995 747.982 296.935 748.196C296.875 748.41 296.773 748.601 296.633 748.758C296.494 748.916 296.322 749.036 296.126 749.112C295.932 749.195 295.718 749.233 295.495 749.224C295.273 749.215 295.047 749.158 294.831 749.058C294.614 748.957 294.411 748.815 294.235 748.639C294.058 748.463 293.91 748.257 293.8 748.033Z" fill="white"/>
<path d="M432.403 707.271C432.236 706.931 432.161 706.562 432.187 706.212C432.214 705.862 432.341 705.546 432.552 705.305C432.763 705.063 433.05 704.907 433.374 704.857C433.698 704.806 434.046 704.863 434.374 705.021C434.701 705.178 434.993 705.429 435.212 705.741C435.431 706.053 435.568 706.412 435.605 706.773C435.642 707.133 435.578 707.479 435.42 707.766C435.262 708.053 435.018 708.269 434.719 708.385C434.323 708.538 433.857 708.508 433.424 708.3C432.991 708.091 432.624 707.722 432.403 707.271Z" fill="white"/>
<path d="M521.711 654.396C521.544 654.056 521.469 653.687 521.495 653.337C521.522 652.987 521.649 652.671 521.86 652.43C522.071 652.188 522.358 652.032 522.682 651.982C523.006 651.931 523.354 651.988 523.682 652.146C524.009 652.303 524.301 652.554 524.52 652.866C524.74 653.178 524.876 653.537 524.913 653.898C524.951 654.258 524.886 654.604 524.728 654.891C524.57 655.178 524.326 655.394 524.027 655.51C523.631 655.663 523.166 655.633 522.732 655.425C522.299 655.216 521.932 654.847 521.711 654.396Z" fill="white"/>
<path d="M614.02 445.867C613.641 445.096 613.471 444.261 613.53 443.467C613.59 442.674 613.876 441.958 614.354 441.41C614.831 440.863 615.477 440.508 616.211 440.391C616.945 440.274 617.733 440.4 618.475 440.754C619.217 441.107 619.88 441.671 620.38 442.376C620.88 443.08 621.194 443.892 621.283 444.709C621.372 445.526 621.231 446.311 620.878 446.965C620.526 447.619 619.977 448.112 619.302 448.381C618.858 448.563 618.368 448.642 617.862 448.614C617.355 448.585 616.841 448.451 616.35 448.217C615.859 447.983 615.4 447.655 615 447.252C614.601 446.849 614.267 446.378 614.02 445.867Z" fill="white"/>
<path d="M568.842 557.009C568.676 556.669 568.601 556.302 568.626 555.953C568.652 555.603 568.778 555.288 568.988 555.046C569.197 554.805 569.481 554.648 569.804 554.596C570.127 554.543 570.473 554.598 570.8 554.752C571.127 554.907 571.42 555.154 571.641 555.464C571.862 555.773 572.002 556.13 572.043 556.489C572.083 556.849 572.023 557.195 571.87 557.484C571.716 557.773 571.476 557.992 571.18 558.113C570.784 558.275 570.315 558.25 569.876 558.043C569.437 557.836 569.066 557.464 568.842 557.009Z" fill="white"/>
<path d="M514.514 799.343C514.132 798.574 513.956 797.739 514.011 796.944C514.065 796.149 514.346 795.431 514.82 794.879C515.293 794.327 515.936 793.967 516.668 793.845C517.401 793.723 518.188 793.844 518.932 794.192C519.675 794.541 520.341 795.101 520.845 795.802C521.349 796.504 521.668 797.315 521.762 798.132C521.856 798.949 521.72 799.736 521.372 800.393C521.024 801.05 520.479 801.548 519.807 801.822C518.911 802.189 517.851 802.133 516.86 801.669C515.868 801.204 515.025 800.368 514.514 799.343Z" fill="white"/>
<path d="M317.41 927.545C317.032 926.775 316.861 925.94 316.921 925.146C316.98 924.353 317.266 923.637 317.744 923.089C318.221 922.541 318.867 922.187 319.601 922.07C320.335 921.953 321.123 922.079 321.865 922.432C322.607 922.786 323.27 923.35 323.77 924.054C324.27 924.759 324.584 925.571 324.673 926.388C324.762 927.205 324.621 927.99 324.268 928.644C323.916 929.298 323.367 929.79 322.693 930.06C322.248 930.242 321.758 930.321 321.251 930.293C320.745 930.264 320.231 930.129 319.74 929.896C319.249 929.662 318.791 929.334 318.391 928.931C317.991 928.527 317.657 928.057 317.41 927.545Z" fill="white"/>
<path d="M566.241 769.015C566.026 768.59 565.927 768.127 565.956 767.685C565.985 767.244 566.14 766.845 566.402 766.539C566.664 766.232 567.022 766.033 567.428 765.966C567.834 765.898 568.271 765.966 568.683 766.161C569.095 766.356 569.463 766.668 569.741 767.058C570.019 767.449 570.193 767.899 570.242 768.352C570.291 768.805 570.212 769.241 570.015 769.602C569.818 769.964 569.513 770.236 569.137 770.383C568.646 770.584 568.065 770.553 567.521 770.296C566.978 770.04 566.517 769.579 566.241 769.015Z" fill="white"/>
<path d="M519.01 691.934C518.787 691.479 518.73 690.978 518.853 690.541C518.976 690.105 519.267 689.769 519.664 689.607C519.859 689.527 520.075 689.492 520.297 689.505C520.52 689.518 520.746 689.578 520.961 689.682C521.177 689.785 521.378 689.931 521.553 690.109C521.728 690.287 521.873 690.495 521.98 690.72C522.093 690.942 522.165 691.178 522.194 691.414C522.222 691.651 522.206 691.883 522.146 692.097C522.086 692.31 521.983 692.502 521.844 692.659C521.705 692.816 521.532 692.936 521.336 693.012C521.142 693.096 520.928 693.134 520.706 693.124C520.484 693.115 520.258 693.058 520.041 692.958C519.825 692.858 519.622 692.716 519.445 692.54C519.268 692.364 519.12 692.158 519.01 691.934Z" fill="white"/>
<path d="M451.26 929.734C451.093 929.394 451.018 929.025 451.045 928.675C451.071 928.324 451.198 928.009 451.409 927.767C451.621 927.526 451.907 927.37 452.231 927.32C452.556 927.269 452.904 927.326 453.231 927.484C453.558 927.641 453.85 927.892 454.069 928.204C454.289 928.516 454.426 928.875 454.463 929.235C454.5 929.596 454.435 929.942 454.278 930.229C454.12 930.516 453.876 930.731 453.576 930.848C453.18 931.001 452.715 930.971 452.282 930.763C451.848 930.554 451.481 930.185 451.26 929.734Z" fill="white"/>
<path d="M450.058 871.816C449.891 871.477 449.816 871.109 449.842 870.76C449.868 870.411 449.993 870.096 450.203 869.854C450.412 869.613 450.697 869.456 451.019 869.403C451.342 869.351 451.689 869.406 452.016 869.56C452.343 869.714 452.635 869.962 452.856 870.271C453.077 870.58 453.217 870.937 453.258 871.297C453.299 871.657 453.239 872.003 453.085 872.292C452.932 872.581 452.692 872.8 452.396 872.921C451.999 873.083 451.53 873.058 451.091 872.85C450.653 872.643 450.281 872.271 450.058 871.816Z" fill="white"/>
<path d="M386.825 857.684C386.658 857.344 386.583 856.977 386.609 856.627C386.635 856.278 386.76 855.963 386.97 855.721C387.18 855.48 387.464 855.323 387.786 855.271C388.109 855.218 388.456 855.273 388.783 855.427C389.11 855.582 389.402 855.829 389.623 856.138C389.845 856.448 389.984 856.804 390.025 857.164C390.066 857.524 390.006 857.87 389.852 858.159C389.699 858.448 389.459 858.667 389.163 858.788C388.766 858.95 388.297 858.925 387.858 858.718C387.42 858.511 387.048 858.139 386.825 857.684Z" fill="white"/>
<path d="M357.981 970.92C357.814 970.581 357.739 970.213 357.765 969.864C357.791 969.514 357.916 969.199 358.126 968.958C358.335 968.716 358.619 968.559 358.942 968.507C359.265 968.455 359.612 968.509 359.939 968.664C360.266 968.818 360.558 969.065 360.779 969.375C361 969.684 361.14 970.041 361.181 970.401C361.222 970.76 361.161 971.107 361.008 971.396C360.855 971.685 360.615 971.903 360.319 972.024C359.922 972.186 359.453 972.161 359.014 971.954C358.576 971.747 358.204 971.375 357.981 970.92Z" fill="white"/>
<path d="M301.516 931.426C301.292 930.971 301.236 930.47 301.358 930.034C301.481 929.597 301.773 929.261 302.169 929.099C302.365 929.019 302.58 928.985 302.803 928.997C303.026 929.01 303.251 929.07 303.467 929.174C303.682 929.278 303.883 929.423 304.058 929.601C304.233 929.779 304.378 929.987 304.486 930.212C304.598 930.434 304.671 930.67 304.699 930.907C304.727 931.143 304.711 931.375 304.651 931.589C304.591 931.802 304.488 931.994 304.349 932.151C304.21 932.308 304.038 932.429 303.842 932.504C303.648 932.588 303.434 932.626 303.211 932.616C302.989 932.607 302.763 932.551 302.547 932.45C302.33 932.35 302.127 932.208 301.95 932.032C301.773 931.856 301.626 931.65 301.516 931.426Z" fill="white"/>
<path d="M299.661 960.408C299.445 959.955 299.395 959.46 299.519 959.029C299.644 958.598 299.934 958.267 300.327 958.107C300.715 958.01 301.147 958.075 301.543 958.29C301.939 958.504 302.271 958.854 302.477 959.273C302.682 959.692 302.747 960.151 302.659 960.563C302.571 960.976 302.337 961.313 301.999 961.512C301.603 961.674 301.133 961.649 300.695 961.442C300.256 961.235 299.884 960.863 299.661 960.408Z" fill="white"/>
<path d="M572.69 744.861C572.523 744.522 572.448 744.154 572.474 743.805C572.5 743.456 572.626 743.141 572.835 742.899C573.045 742.657 573.329 742.501 573.652 742.448C573.974 742.396 574.321 742.45 574.648 742.605C574.975 742.759 575.268 743.007 575.489 743.316C575.71 743.625 575.85 743.982 575.89 744.342C575.931 744.702 575.871 745.048 575.717 745.337C575.564 745.626 575.324 745.845 575.028 745.966C574.631 746.128 574.162 746.103 573.724 745.895C573.285 745.688 572.913 745.316 572.69 744.861Z" fill="white"/>
<path d="M585.275 656.715C585.108 656.374 585.033 656.005 585.059 655.655C585.086 655.305 585.213 654.989 585.424 654.748C585.635 654.507 585.922 654.351 586.246 654.3C586.57 654.25 586.918 654.307 587.246 654.464C587.573 654.622 587.865 654.872 588.084 655.184C588.303 655.496 588.44 655.855 588.477 656.216C588.514 656.577 588.45 656.922 588.292 657.21C588.134 657.497 587.89 657.712 587.591 657.828C587.195 657.982 586.73 657.951 586.296 657.743C585.863 657.535 585.496 657.165 585.275 656.715Z" fill="white"/>
<path d="M420.8 915.033C420.576 914.578 420.52 914.077 420.642 913.641C420.765 913.205 421.057 912.868 421.454 912.706C421.649 912.626 421.864 912.592 422.087 912.605C422.31 912.618 422.535 912.678 422.751 912.781C422.966 912.885 423.168 913.03 423.342 913.208C423.517 913.387 423.663 913.594 423.77 913.82C423.882 914.041 423.955 914.278 423.983 914.514C424.012 914.75 423.995 914.982 423.935 915.196C423.875 915.41 423.773 915.601 423.633 915.758C423.494 915.916 423.322 916.036 423.126 916.112C422.932 916.195 422.718 916.233 422.495 916.224C422.273 916.215 422.047 916.158 421.831 916.058C421.614 915.957 421.411 915.815 421.235 915.639C421.058 915.463 420.91 915.257 420.8 915.033Z" fill="white"/>
<path d="M559.403 874.271C559.236 873.931 559.161 873.562 559.187 873.212C559.214 872.862 559.341 872.546 559.552 872.305C559.763 872.063 560.05 871.907 560.374 871.857C560.698 871.806 561.046 871.863 561.374 872.021C561.701 872.178 561.993 872.429 562.212 872.741C562.431 873.053 562.568 873.412 562.605 873.773C562.642 874.133 562.578 874.479 562.42 874.766C562.262 875.053 562.018 875.269 561.719 875.385C561.323 875.538 560.857 875.508 560.424 875.3C559.991 875.091 559.624 874.722 559.403 874.271Z" fill="white"/>
<defs>
<filter id="filter0_d_67_15" x="480" y="700" width="22" height="22" filterUnits="userSpaceOnUse" color-interpolation-filters="sRGB">
<feFlood flood-opacity="0" result="BackgroundImageFix"/>
<feColorMatrix in="SourceAlpha" type="matrix" values="0 0 0 0 0 0 0 0 0 0 0 0 0 0 0 0 0 0 127 0" result="hardAlpha"/>
<feOffset dx="1" dy="1"/>
<feGaussianBlur stdDeviation="2"/>
<feComposite in2="hardAlpha" operator="out"/>
<feColorMatrix type="matrix" values="0 0 0 0 0 0 0 0 0 0 0 0 0 0 0 0 0 0 0.23 0"/>
<feBlend mode="normal" in2="BackgroundImageFix" result="effect1_dropShadow_67_15"/>
<feBlend mode="normal" in="SourceGraphic" in2="effect1_dropShadow_67_15" result="shape"/>
</filter>
<linearGradient id="paint0_linear_67_15" x1="402.076" y1="1409.71" x2="181.645" y2="-765.421" gradientUnits="userSpaceOnUse">
<stop offset="0.61" stop-color="#227B8C"/>
</linearGradient>
<linearGradient id="paint1_linear_67_15" x1="414.076" y1="1410.24" x2="198.819" y2="-739.466" gradientUnits="userSpaceOnUse">
<stop offset="0.11" stop-color="#052D38"/>
<stop offset="0.24" stop-color="#06303B"/>
<stop offset="0.35" stop-color="#0A3945"/>
<stop offset="0.44" stop-color="#0F4956"/>
<stop offset="0.53" stop-color="#175F6E"/>
<stop offset="0.61" stop-color="#227B8C"/>
<stop offset="0.69" stop-color="#2F9FB2"/>
</linearGradient>
<linearGradient id="paint2_linear_67_15" x1="490" y1="703" x2="490" y2="717" gradientUnits="userSpaceOnUse">
<stop stop-color="#2F9FB2"/>
<stop offset="1" stop-color="#052D38"/>
</linearGradient>
</defs>
</svg>
